<mxfile host="app.diagrams.net" modified="2024-02-15T02:30:14.614Z" agent="Mozilla/5.0 (Windows NT 10.0; Win64; x64) AppleWebKit/537.36 (KHTML, like Gecko) Chrome/121.0.0.0 Safari/537.36" version="23.1.4" etag="-e20nb3JV0qGjR5WRo49" type="github">
  <diagram name="페이지-1" id="50gI5EsimL3ofWp0jPkY">
    <mxGraphModel>
      <root>
        <mxCell id="0" />
        <mxCell id="1" parent="0" />
      </root>
    </mxGraphModel>
  </diagram>
</mxfile>
